<svg version="1.0" xmlns="http://www.w3.org/2000/svg"
 width="50" height="50" viewBox="0 0 100 100"
 preserveAspectRatio="xMidYMid meet">

  <g transform="translate(0,100) scale(0.1,-0.1)" fill="#336699" stroke="none">
    <path d="M0 500 l0 -500 500 0 500 0 0 500 0 500 -500 0 -500 0 0 -500z m578 161 c-1 -5 -46 -81 -98 -170 -62 -105 -100 -160 -110 -159 -16 3 -108 144 -109 167 -1 8 20 50 45 93 l46 78 115 0 c63 0 113 -4 111 -9z m84 -20 c16 -29 16 -30 -48 -136 -35 -59 -62 -111 -58 -116 9 -15 19 -4 79 97 l58 97 18 -24 c36 -46 34 -63 -17 -148 l-49 -81 -107 0 c-59 0 -109 3 -111 8 -9 13 185 332 202 332 9 0 23 -13 33 -29z"/>
    <path d="M397 568 c-52 -81 -60 -99 -49 -110 7 -7 49 53 99 144 2 4 -1 9 -7 13 -5 3 -25 -18 -43 -47z"/>
  </g>
</svg>